<svg width="274" height="264" viewBox="0 0 274 264" fill="none" xmlns="http://www.w3.org/2000/svg">
<ellipse cx="137.031" cy="132" rx="136.969" ry="132" fill="#149CE3"/>
<path d="M132.96 95.52C134.96 92.4 137.72 89.88 141.24 87.96C144.76 86.04 148.88 85.08 153.6 85.08C159.12 85.08 164.12 86.48 168.6 89.28C173.08 92.08 176.6 96.08 179.16 101.28C181.8 106.48 183.12 112.52 183.12 119.4C183.12 126.28 181.8 132.36 179.16 137.64C176.6 142.84 173.08 146.88 168.6 149.76C164.12 152.56 159.12 153.96 153.6 153.96C148.96 153.96 144.84 153 141.24 151.08C137.72 149.16 134.96 146.68 132.96 143.64V184.92H112.44V86.04H132.96V95.52ZM162.24 119.4C162.24 114.28 160.8 110.28 157.92 107.4C155.12 104.44 151.64 102.96 147.48 102.96C143.4 102.96 139.92 104.44 137.04 107.4C134.24 110.36 132.84 114.4 132.84 119.52C132.84 124.64 134.24 128.68 137.04 131.64C139.92 134.6 143.4 136.08 147.48 136.08C151.56 136.08 155.04 134.6 157.92 131.64C160.8 128.6 162.24 124.52 162.24 119.4Z" fill="white"/>
</svg>
